#!OML:ASF C:\Vicon Data\Big\jianyuan-13\jianyuan\Session 1\Capture.male.ASF
:FULLY-SPECIFIED
:DEGREES
209
root -4.597449 17.890429 -10.369484 -0.083541 11.615771 -2.120224
lowerback -4.947029 -0.503457 -0.748393 
upperback 3.686879 -0.596713 -0.291683 
thorax 6.622648 -0.321001 0.052317 
lowerneck -0.590202 -3.141142 1.809770 
upperneck 16.141353 -4.054864 -2.165360 
head 4.853895 -2.008746 -1.142899 
rclavicle 0.000000 0.000000 
rhumerus -40.009776 -20.411616 -76.118773 
rradius 35.740144 
rwrist 25.968144 
rhand -18.895487 -17.800586 
rfingers 0.000000 
rthumb 7.406028 -47.650910 
lclavicle 0.000000 0.000000 
lhumerus -30.481251 26.102907 76.870115 
lradius 29.419645 
lwrist -49.431985 
lhand -19.682318 0.111776 
lfingers 0.000000 
lthumb 6.646497 29.987489 
rfemur -83.017881 -13.555108 21.392082 
rtibia 87.626371 
rfoot -4.617319 -4.803256 
rtoes -37.076836 
lfemur 2.627933 -5.181525 -22.743424 
ltibia 4.669829 
lfoot -7.489718 2.415331 
ltoes -27.865205 
210
root -4.586693 17.884685 -10.299920 -0.148910 11.670099 -2.105555
lowerback -5.081882 -0.534321 -0.801345 
upperback 3.692098 -0.627663 -0.367862 
thorax 6.706102 -0.336842 -0.002191 
lowerneck -0.663267 -3.146969 1.953871 
upperneck 16.296531 -4.068823 -2.189788 
head 4.910127 -2.008482 -1.178426 
rclavicle 0.000000 0.000000 
rhumerus -40.012059 -20.300079 -76.295679 
rradius 35.939018 
rwrist 25.739567 
rhand -18.940176 -17.979992 
rfingers 0.000000 
rthumb 7.362850 -47.831919 
lclavicle 0.000000 0.000000 
lhumerus -30.638120 26.003481 76.644620 
lradius 29.357294 
lwrist -49.004843 
lhand -19.246068 0.057923 
lfingers 0.000000 
lthumb 7.067595 29.919923 
rfemur -82.385510 -13.250472 21.116387 
rtibia 86.501345 
rfoot -4.183717 -3.831215 
rtoes -37.348083 
lfemur 2.724031 -5.262377 -22.792447 
ltibia 5.134069 
lfoot -7.879679 2.323085 
ltoes -27.853665 
211
root -4.582506 17.875924 -10.224328 -0.263629 11.582418 -2.099866
lowerback -5.239205 -0.528390 -0.953203 
upperback 3.738324 -0.605082 -0.367247 
thorax 6.847865 -0.333252 0.084115 
lowerneck -0.757073 -3.125161 1.831475 
upperneck 16.420442 -4.056043 -2.036352 
head 4.970711 -2.000140 -1.114172 
rclavicle 0.000000 0.000000 
rhumerus -39.928879 -20.217455 -76.333474 
rradius 36.025011 
rwrist 25.648541 
rhand -18.844601 -17.946864 
rfingers 0.000000 
rthumb 7.455132 -47.795476 
lclavicle 0.000000 0.000000 
lhumerus -30.852398 26.254715 76.388863 
lradius 29.266808 
lwrist -49.345077 
lhand -19.111239 0.007811 
lfingers 0.000000 
lthumb 7.197806 29.865426 
rfemur -81.640992 -12.779461 20.848811 
rtibia 85.383083 
rfoot -4.036508 -2.867897 
rtoes -37.646809 
lfemur 2.791354 -5.198348 -22.801223 
ltibia 5.853522 
lfoot -8.464359 2.151243 
ltoes -27.712835 
212
root -4.570566 17.864288 -10.156790 -0.313606 11.602066 -2.158842
lowerback -5.353832 -0.572226 -0.999063 
upperback 3.699080 -0.663112 -0.298882 
thorax 6.874433 -0.365745 0.173882 
lowerneck -0.688787 -3.100157 1.723627 
upperneck 16.439456 -4.011767 -2.058576 
head 4.967639 -1.986065 -1.100449 
rclavicle 0.000000 0.000000 
rhumerus -39.918729 -20.015022 -76.276874 
rradius 36.143999 
rwrist 25.531546 
rhand -19.043750 -17.946852 
rfingers 0.000000 
rthumb 7.262920 -47.802212 
lclavicle 0.000000 0.000000 
lhumerus -31.220914 26.326139 76.234384 
lradius 29.242557 
lwrist -49.496058 
lhand -19.089161 0.089814 
lfingers 0.000000 
lthumb 7.219068 29.946687 
rfemur -80.882895 -12.468639 20.683300 
rtibia 84.162296 
rfoot -3.875473 -1.953093 
rtoes -38.117104 
lfemur 2.677067 -5.245896 -22.771889 
ltibia 6.686366 
lfoot -9.058918 1.986749 
ltoes -27.624493 
213
root -4.561604 17.851502 -10.084730 -0.330854 11.568102 -2.192594
lowerback -5.573869 -0.571121 -1.046320 
upperback 3.699550 -0.653896 -0.310326 
thorax 7.002664 -0.363463 0.187141 
lowerneck -0.727584 -3.121324 1.820421 
upperneck 16.505303 -4.041827 -2.094636 
head 4.991025 -1.997238 -1.130483 
rclavicle 0.000000 0.000000 
rhumerus -39.907951 -19.970717 -76.338611 
rradius 36.385952 
rwrist 25.392127 
rhand -18.951170 -18.138728 
rfingers 0.000000 
rthumb 7.352317 -47.990953 
lclavicle 0.000000 0.000000 
lhumerus -31.479918 26.511927 75.936528 
lradius 29.137061 
lwrist -49.878286 
lhand -18.990286 0.001252 
lfingers 0.000000 
lthumb 7.314533 29.854827 
rfemur -80.140709 -12.119823 20.554795 
rtibia 82.903307 
rfoot -3.838858 -1.220829 
rtoes -38.545349 
lfemur 2.669788 -5.240807 -22.762740 
ltibia 7.288849 
lfoot -9.594904 1.868634 
ltoes -27.327768 
214
root -4.558552 17.840780 -10.005860 -0.364940 11.412239 -2.091951
lowerback -5.771941 -0.533472 -1.240608 
upperback 3.691560 -0.578488 -0.387003 
thorax 7.109508 -0.333985 0.222816 
lowerneck -0.652082 -3.154966 1.870807 
upperneck 16.539535 -4.087694 -2.105461 
head 4.986721 -2.017276 -1.143109 
rclavicle 0.000000 0.000000 
rhumerus -39.881887 -19.875950 -76.442982 
rradius 36.519740 
rwrist 25.226508 
rhand -19.069918 -18.001594 
rfingers 0.000000 
rthumb 7.237651 -47.857875 
lclavicle 0.000000 0.000000 
lhumerus -31.797560 26.678621 75.550694 
lradius 29.019787 
lwrist -50.262782 
lhand -18.932843 0.021768 
lfingers 0.000000 
lthumb 7.369985 29.873395 
rfemur -79.227204 -11.608141 20.303924 
rtibia 81.616431 
rfoot -3.966024 -0.668470 
rtoes -38.639214 
lfemur 3.015911 -5.109756 -22.876153 
ltibia 7.360853 
lfoot -9.933105 1.783345 
ltoes -27.029391 
215
root -4.551434 17.827146 -9.933378 -0.268288 11.316439 -1.969909
lowerback -6.058097 -0.538803 -1.381484 
upperback 3.649118 -0.563597 -0.457402 
thorax 7.230887 -0.331867 0.227491 
lowerneck -0.431861 -3.247192 1.813977 
upperneck 16.537171 -4.188534 -2.225056 
head 4.945217 -2.076856 -1.170472 
rclavicle 0.000000 0.000000 
rhumerus -39.806868 -19.733020 -76.548508 
rradius 36.624425 
rwrist 25.054975 
rhand -18.915481 -17.986514 
rfingers 0.000000 
rthumb 7.386726 -47.837549 
lclavicle 0.000000 0.000000 
lhumerus -32.171981 26.968755 75.145941 
lradius 28.901911 
lwrist -50.764457 
lhand -19.068237 0.017807 
lfingers 0.000000 
lthumb 7.239308 29.874013 
rfemur -78.455879 -11.180983 20.052021 
rtibia 80.285590 
rfoot -4.190434 -0.234554 
rtoes -38.589166 
lfemur 3.096045 -5.045282 -23.021567 
ltibia 7.614296 
lfoot -10.293048 1.696512 
ltoes -27.167876 
216
root -4.541868 17.813767 -9.863064 -0.190837 11.239003 -1.876037
lowerback -6.246404 -0.551743 -1.584568 
upperback 3.566464 -0.561739 -0.421301 
thorax 7.254723 -0.341598 0.378349 
lowerneck -0.628367 -3.110925 1.740478 
upperneck 16.682467 -4.030120 -2.040224 
head 5.032325 -1.992724 -1.100859 
rclavicle 0.000000 0.000000 
rhumerus -39.835566 -19.533880 -76.492745 
rradius 36.806039 
rwrist 25.078637 
rhand -19.108663 -17.966023 
rfingers 0.000000 
rthumb 7.200254 -47.823511 
lclavicle 0.000000 0.000000 
lhumerus -32.598670 27.111959 74.919104 
lradius 28.846294 
lwrist -50.783656 
lhand -19.024971 0.011223 
lfingers 0.000000 
lthumb 7.281043 29.865948 
rfemur -77.633122 -10.769889 19.833008 
rtibia 78.940503 
rfoot -4.458924 0.014616 
rtoes -38.885416 
lfemur 3.025967 -4.999545 -23.138819 
ltibia 8.167654 
lfoot -10.786920 1.545951 
ltoes -27.055968 
217
root -4.537923 17.800582 -9.787268 -0.129491 11.096414 -1.800154
lowerback -6.498536 -0.520926 -1.697189 
upperback 3.525799 -0.500757 -0.480655 
thorax 7.357072 -0.315868 0.385031 
lowerneck -0.620492 -3.110698 1.706586 
upperneck 16.733328 -4.042102 -1.944065 
head 5.049548 -1.994799 -1.066715 
rclavicle 0.000000 0.000000 
rhumerus -39.781319 -19.545860 -76.553135 
rradius 36.915614 
rwrist 25.107990 
rhand -18.935305 -17.927911 
rfingers 0.000000 
rthumb 7.367591 -47.779636 
lclavicle 0.000000 0.000000 
lhumerus -32.942829 27.086307 74.601729 
lradius 28.767339 
lwrist -50.995191 
lhand -19.019853 0.020695 
lfingers 0.000000 
lthumb 7.285990 29.875239 
rfemur -76.754368 -10.306377 19.693691 
rtibia 77.646577 
rfoot -4.727480 0.002817 
rtoes -39.199421 
lfemur 3.118065 -4.887207 -23.205808 
ltibia 8.506035 
lfoot -11.224847 1.395461 
ltoes -27.114232 
218
root -4.529840 17.784614 -9.718112 -0.007986 10.973735 -1.689368
lowerback -6.694272 -0.486152 -1.722012 
upperback 3.434097 -0.438685 -0.623870 
thorax 7.370412 -0.282253 0.255736 
lowerneck -0.644489 -3.171403 2.054016 
upperneck 16.847474 -4.114103 -2.158885 
head 5.074942 -2.022052 -1.195509 
rclavicle 0.000000 0.000000 
rhumerus -39.815750 -19.575948 -76.707252 
rradius 37.084055 
rwrist 24.902766 
rhand -19.014451 -17.834831 
rfingers 0.000000 
rthumb 7.291219 -47.689211 
lclavicle 0.000000 0.000000 
lhumerus -33.280483 27.214304 74.108837 
lradius 28.611525 
lwrist -51.229763 
lhand -18.942010 0.028517 
lfingers 0.000000 
lthumb 7.361150 29.880461 
rfemur -75.944426 -9.918218 19.535676 
rtibia 76.349051 
rfoot -4.937386 -0.025654 
rtoes -39.139859 
lfemur 3.128949 -4.798308 -23.324022 
ltibia 8.808090 
lfoot -11.604672 1.275642 
ltoes -27.149379 
219
root -4.522998 17.769911 -9.646991 0.054781 10.889330 -1.488998
lowerback -6.849205 -0.548002 -1.955431 
upperback 3.373128 -0.493733 -0.648510 
thorax 7.398653 -0.319798 0.352789 
lowerneck -0.629133 -3.145984 1.916104 
upperneck 16.953648 -4.054933 -2.272297 
head 5.106518 -2.008230 -1.206777 
rclavicle 0.000000 0.000000 
rhumerus -39.758299 -19.309947 -76.760276 
rradius 37.252314 
rwrist 24.863330 
rhand -19.011190 -17.807458 
rfingers 0.000000 
rthumb 7.294351 -47.661711 
lclavicle 0.000000 0.000000 
lhumerus -33.779018 27.765385 73.611833 
lradius 28.504998 
lwrist -51.438438 
lhand -18.851006 -0.100894 
lfingers 0.000000 
lthumb 7.448940 29.747963 
rfemur -74.990657 -9.546905 19.211100 
rtibia 75.050524 
rfoot -5.100929 -0.218927 
rtoes -38.896311 
lfemur 3.184958 -4.743897 -23.555875 
ltibia 9.203320 
lfoot -12.016860 1.184899 
ltoes -27.151274 
220
root -4.518212 17.755363 -9.574579 0.037193 10.818665 -1.316072
lowerback -6.931843 -0.557508 -2.167505 
upperback 3.362479 -0.479593 -0.698531 
thorax 7.437021 -0.322055 0.420493 
lowerneck -0.641251 -3.102721 1.836158 
upperneck 16.957632 -4.012789 -2.133268 
head 5.115728 -1.984166 -1.149126 
rclavicle 0.000000 0.000000 
rhumerus -39.697169 -19.317088 -76.778190 
rradius 37.380648 
rwrist 24.864855 
rhand -19.035473 -17.792696 
rfingers 0.000000 
rthumb 7.270905 -47.647787 
lclavicle 0.000000 0.000000 
lhumerus -34.211404 28.039861 73.202607 
lradius 28.425153 
lwrist -51.895442 
lhand -18.847816 -0.002521 
lfingers 0.000000 
lthumb 7.452075 29.846199 
rfemur -73.916333 -9.172785 18.950514 
rtibia 73.818002 
rfoot -5.354396 -0.665128 
rtoes -38.993844 
lfemur 3.381373 -4.697845 -23.741751 
ltibia 9.493616 
lfoot -12.372772 1.062776 
ltoes -27.151470 
221
root -4.513696 17.735563 -9.502406 0.017853 10.754811 -1.162535
lowerback -7.018518 -0.553787 -2.292816 
upperback 3.364467 -0.452421 -0.796283 
thorax 7.489465 -0.312578 0.390935 
lowerneck -0.772822 -3.096389 1.960241 
upperneck 17.008010 -4.012905 -2.144465 
head 5.150711 -1.977680 -1.176341 
rclavicle 0.000000 0.000000 
rhumerus -39.630162 -19.392683 -76.870020 
rradius 37.506621 
rwrist 24.795837 
rhand -18.951776 -17.884764 
rfingers 0.000000 
rthumb 7.351686 -47.737035 
lclavicle 0.000000 0.000000 
lhumerus -34.500909 28.260798 72.768717 
lradius 28.272847 
lwrist -52.029912 
lhand -18.834076 -0.030577 
lfingers 0.000000 
lthumb 7.465311 29.817731 
rfemur -72.881743 -8.926767 18.810310 
rtibia 72.627517 
rfoot -5.469615 -0.996253 
rtoes -39.258747 
lfemur 3.430315 -4.659228 -23.907867 
ltibia 10.089598 
lfoot -12.926299 0.908137 
ltoes -27.414458 
